Coordinates
version=1
nRows=19
nColumns=36
inDegrees=yes

Units are S.I. units (second, meters, Newtons, ...)
If the header above contains a line with 'inDegrees', this indicates whether rotational values are in degrees (yes) or radians (no).

endheader
time	pelvis_tilt	pelvis_list	pelvis_rotation	pelvis_tx	pelvis_ty	pelvis_tz	hip_flexion_r	hip_adduction_r	hip_rotation_r	knee_angle_r	knee_angle_r_beta	ankle_angle_r	subtalar_angle_r	mtp_angle_r	hip_flexion_l	hip_adduction_l	hip_rotation_l	knee_angle_l	knee_angle_l_beta	ankle_angle_l	subtalar_angle_l	mtp_angle_l	lumbar_extension	lumbar_bending	lumbar_rotation	arm_flex_r	arm_add_r	arm_rot_r	elbow_flex_r	pro_sup_r	arm_flex_l	arm_add_l	arm_rot_l	elbow_flex_l	pro_sup_l
     15.15000000	     -1.96253863	      6.84069267	    -11.22931075	      0.65885603	      0.91502519	      0.68413319	     17.71932160	     -8.24724856	      8.21148768	     67.83588381	      1.18395952	    -14.07947078	    -20.43431099	     -7.49999987	     18.05926933	      6.10839374	     -5.81180944	     20.36568588	      0.35544827	      7.14552697	    -10.39500351	     -7.49999987	     -0.81123467	     -9.38946763	      6.95665799	      9.73947487	    -12.15331740	      3.95646253	     31.13384161	     94.69402613	      4.01766502	    -10.70096781	      9.67436674	     14.13225796	     95.07695428
     15.16666670	     -2.32427314	      6.40331006	    -11.06007110	      0.65749281	      0.92152166	      0.68410695	     20.42852750	     -7.08578993	      7.87279250	     68.86890013	      1.20198906	    -10.39161781	    -19.74963614	     -7.49999987	     16.48253216	      6.06118892	     -5.20641466	     19.33217622	      0.33741013	      7.64877883	    -10.35990676	     -7.49999987	     -0.60666044	     -8.59726813	      6.10107175	      8.67634008	    -11.99008303	      3.55830159	     29.44009418	     98.17529196	      5.54581796	    -10.70925223	     13.34053234	     14.52721437	     96.57639601
     15.18333330	     -2.32434791	      5.79073228	    -10.98386071	      0.65607794	      0.92843906	      0.68485378	     22.43125199	     -5.85165690	      7.42299265	     68.82410957	      1.20120732	     -6.59171843	    -18.96237307	     -7.49999987	     14.46986276	      5.85255151	     -4.50466755	     18.27823655	      0.31901541	      8.09166675	    -10.38488298	     -7.49999987	     -0.95282268	     -7.61691318	      5.11195549	      8.12162090	    -11.69440167	      3.02751838	     27.59429292	     97.18618711	      6.75818399	    -10.50334169	     13.60398737	     15.38325907	     95.35064654
     15.20000000	     -2.20790184	      5.13242885	    -10.88306641	      0.65498155	      0.93297704	      0.68535891	     24.13444022	     -4.64637811	      6.94846040	     67.86184184	      1.18441258	     -2.80058355	    -18.27990361	     -7.49999987	     12.39325627	      5.53551468	     -3.92600732	     17.41088159	      0.30387721	      8.73904753	    -10.09502621	     -7.49999987	     -1.43163876	     -6.62069168	      4.49518742	      7.49484454	    -11.59775185	      2.60341251	     25.96013585	     98.83897911	      8.12391164	    -10.62077079	     15.58199354	     16.29270523	     96.01762274
     15.21666670	     -1.95052061	      4.44050251	    -10.70204286	      0.65425315	      0.93399938	      0.68536048	     25.53971131	     -3.54419611	      6.46342051	     66.00080692	      1.15193139	      0.46986730	    -17.88342731	     -7.49999987	     10.24589421	      5.19434783	     -3.24807854	     16.67705352	      0.29106949	      9.30615435	    -10.03377793	     -7.49999987	     -2.18432116	     -5.61714920	      3.83440997	      6.94665224	    -11.41824951	      2.09832192	     24.33356600	     96.58478539	      9.40694814	    -10.56557221	     15.70995265	     17.23381432	     93.76849818
     15.23333330	     -1.80117012	      3.86541393	    -10.31510049	      0.65272411	      0.93170775	      0.68515839	     26.89172452	     -2.76731941	      5.84845244	     63.33048895	      1.10532555	      3.54945564	    -16.77658947	     -7.49999987	      8.35362280	      4.93181346	     -2.74247557	     16.07903794	      0.28063215	     10.21451302	     -9.57295855	     -7.49999987	     -2.78917982	     -4.69193320	      2.63768131	      6.56828180	    -11.17015465	      1.66789611	     22.56289076	     97.08628489	     10.57921337	    -10.80056944	     16.38934502	     18.19038223	     94.33372304
     15.25000000	     -1.95739873	      3.33615930	     -9.93875010	      0.64896040	      0.92916127	      0.68501997	     28.36513692	     -2.05548867	      5.30112734	     59.87546285	      1.04502397	      5.16120867	    -16.50868196	     -7.49999987	      6.92763073	      4.64618568	     -2.31236794	     15.61665045	      0.27256197	     11.02846878	     -9.45825948	     -7.49999987	     -2.98552011	     -3.76899228	      1.83608968	      5.60075813	    -11.16954439	      1.32686025	     21.47266898	     97.09301986	     11.89207075	    -10.83081409	     16.55121640	     19.36787674	     94.38187919
     15.26666670	     -1.52534235	      2.84629305	     -9.62816492	      0.64295329	      0.92988356	      0.68487557	     28.95105247	     -1.69207086	      4.69964621	     55.57672480	      0.96999684	      6.14820895	    -15.97228937	     -7.49999987	      4.90426067	      4.44199101	     -2.18488517	     15.05063394	      0.26268312	     11.91272285	     -8.79187772	     -7.49999987	     -4.13834469	     -3.07327831	      0.93739952	      5.20060510	    -10.60957274	     -2.39326805	     19.91451622	     99.50192752	     13.39127393	    -11.25349415	     17.45184303	     21.22396271	     95.84738974
     15.28333330	     -1.35142577	      2.36500657	     -9.36635206	      0.63681937	      0.93180511	      0.68555409	     29.46636601	     -1.44881227	      3.97542164	     50.37999662	      0.87929682	      6.31018374	    -15.59414625	     -7.49999987	      3.11870073	      4.15663677	     -1.79353404	     14.39631579	      0.25126311	     12.64965643	     -8.48018454	     -7.49999987	     -4.98060301	     -2.33830735	     -0.07086494	      4.85116750	    -10.41782690	     -3.52966070	     18.55775644	     97.50089235	     14.63664684	    -11.58501969	     17.21896417	     23.14421394	     94.00515350
     15.30000000	     -1.14089621	      1.91814782	     -9.27566052	      0.63138829	      0.93386382	      0.68765556	     29.66633501	     -1.22311343	      3.39476580	     44.45425635	      0.77587314	      5.57065268	    -15.38995642	     -7.49999987	      1.21706108	      3.80748936	     -1.46302881	     13.57338216	      0.23690021	     13.23196990	     -8.09732901	     -7.49999987	     -5.90262647	     -1.73507271	     -0.80788165	      4.38477120	    -10.11974624	     -5.19986041	     17.58594509	     96.86819925	     15.89294904	    -11.94840794	     16.94902412	     24.99580006	     93.65424024
     15.31666670	     -0.92714934	      1.61413361	     -9.07424843	      0.62860245	      0.93310311	      0.68889280	     29.71376192	     -1.21812312	      2.77310512	     38.19006779	      0.66654242	      4.24536862	    -14.92281745	     -7.49999987	     -0.58706814	      3.57070810	     -0.91561626	     12.81494529	      0.22366299	     13.78881891	     -7.87127391	     -7.49999987	     -6.83393661	     -1.36665208	     -1.50743668	      3.87792408	     -9.68922330	     -7.37737868	     16.85315664	     96.42830166	     17.15973327	    -12.27759181	     16.53113578	     26.89828215	     93.76992959
     15.33333330	     -0.72374837	      1.44789911	     -8.77069050	      0.63019496	      0.92906338	      0.68757911	     29.64440969	     -1.40381811	      2.19282059	     31.84652101	      0.55582665	      2.75971666	    -14.21864634	     -7.49999987	     -2.31718827	      3.46969204	     -0.41283797	     12.11047900	      0.21136773	     14.26923794	     -7.75290417	     -7.49999987	     -7.60352136	     -1.16723305	     -2.24515008	      3.29009885	     -9.34550812	     -8.89309396	     16.15234344	     96.65260401	     18.40037477	    -12.41654450	     16.07905283	     28.16146534	     94.17669842
     15.35000000	     -0.77674361	      1.41073593	     -8.40055564	      0.63346781	      0.92450692	      0.68568212	     29.70185205	     -1.70308221	      1.63975204	     25.53087145	      0.44559777	      1.97765793	    -12.79905123	     -7.49999987	     -3.76327836	      3.47718078	     -0.15562209	     11.59081846	      0.20229795	     14.91962490	     -7.80364322	     -7.49999987	     -7.79647023	     -1.02037718	     -2.92783930	      2.54012397	     -9.13301443	     -9.93497185	     15.38328725	     96.75943874	     19.32931127	    -12.40504070	     15.83236451	     29.07714456	     94.46181594
     15.36666670	     -0.61606175	      1.33923217	     -7.90055070	      0.63323950	      0.92181661	      0.68647544	     29.28923433	     -1.99092799	      0.85945468	     19.18754494	      0.33488583	      2.58166402	    -10.14131028	     -7.49999987	     -5.59193447	      3.40024091	     -0.31398215	     11.13048420	      0.19426360	     15.47946917	     -7.74480808	     -7.49999987	     -8.27143683	     -0.84004677	     -3.99704995	      2.23231542	     -8.74334359	    -12.46521372	     14.39401089	     95.58600875	     19.65642854	    -12.65586587	     15.57366944	     30.54537625	     93.76667790
     15.38333330	     -0.72239756	      1.23275518	     -7.26697862	      0.62899232	      0.91749123	      0.68980028	     29.06683054	     -2.06071334	      0.17553614	     13.15996454	      0.22968471	      4.14646216	     -7.33114722	     -7.49999987	     -7.21630077	      3.08762011	     -0.66576474	     10.96304933	      0.19134131	     15.75152314	     -8.20272618	     -7.49999987	     -8.36422489	     -0.62309499	     -4.79508634	      1.60814814	     -8.53993070	    -14.53281041	     13.87043359	     96.62440970	     20.14146230	    -12.65490167	     15.30489882	     31.17805318	     94.46322059
     15.40000000	     -1.21018360	      1.07827606	     -6.36224561	      0.62441591	      0.90812824	      0.69250315	     29.42544429	     -2.09392864	     -0.87048805	      8.24458048	      0.14389507	      6.75976859	     -3.87979425	     -7.49999987	     -8.37683611	      2.46643255	     -0.79827884	     11.26193486	      0.19655784	     15.61025631	     -9.52710623	     -7.49999987	     -8.00025042	     -0.33345741	     -5.83645030	      1.33213169	     -8.55463535	    -15.24490470	     12.59568845	     96.99254098	     20.44418422	    -12.84275341	     15.48689971	     31.77017916	     94.93192357
     15.41666670	     -1.94029880	      0.61608493	     -5.68777660	      0.62303732	      0.89700629	      0.69428113	     30.22500397	     -1.63380221	     -1.23930617	      5.01674780	      0.08755877	      9.15229645	     -2.11214015	     -7.49999987	     -9.13381867	      1.25243704	     -2.01238613	     12.26941387	      0.21414167	     16.31269729	     -9.71330691	     -7.49999987	     -7.38920598	      0.35162502	     -6.63735648	      0.98609658	     -8.69058035	    -16.16437281	     11.92853485	     96.61172291	     20.33331531	    -13.08466579	     15.94914194	     32.69850823	     94.73467415
     15.43333330	     -2.79904544	     -0.13099713	     -5.05651641	      0.62587076	      0.88917973	      0.69610624	     31.35206706	     -0.91727454	     -1.71768535	      4.22554955	      0.07374975	     10.82702501	     -1.61960592	     -7.49999987	     -9.43235436	     -0.25686606	     -2.91666489	     13.95165431	      0.24350230	     17.15688043	    -10.79933224	     -7.49999987	     -6.59999395	      1.31513667	     -7.01814959	      0.47538192	     -9.06070656	    -16.52683300	     11.56132951	     96.76132216	     20.28209093	    -12.86938720	     16.22559498	     33.03017463	     94.95209696
     15.45000000	     -3.39030602	     -1.32644737	     -4.52456796	      0.63250587	      0.88605674	      0.69984120	     32.10115465	      0.23793262	     -3.39734027	      5.88041744	      0.10263265	     11.52048090	     -1.18722774	     -7.49999987	     -9.69381863	     -2.16143699	     -3.92701130	     16.19129008	      0.28259132	     18.24987380	    -11.76722530	     -7.49999987	     -5.91482692	      2.72935453	     -7.46440349	      0.33852574	     -9.51821716	    -16.89438293	     10.84235608	     97.08714717	     19.83697525	    -12.58491190	     16.44684130	     33.00206437	     95.30800423
